<svg id="Layer_1" data-name="Layer 1" xmlns="http://www.w3.org/2000/svg" viewBox="0 0 100 22.8"><defs><style>.cls-1{fill:#fff;}</style></defs><title>novibet white</title><path class="cls-1" d="M15.94,13.17l-1.09,8.92a.49.49,0,0,1-.53.43H9.86c-.29,0-.44-.14-.44-.37v-.06L10.52,13a6.12,6.12,0,0,0,.11-1,1.68,1.68,0,0,0-.23-1.07,1.37,1.37,0,0,0-1.18-.43,15.6,15.6,0,0,0-1.82.15L6,22.09a.48.48,0,0,1-.52.43H1c-.28,0-.43-.14-.43-.37v-.06L2.15,9.22c.11-1,1.18-1.33,3-1.67A28.65,28.65,0,0,1,10.46,7c2,0,3.52.2,4.53,1a3.15,3.15,0,0,1,1.18,2.77,22,22,0,0,1-.23,2.42"/><path class="cls-1" d="M26.76,11c-.25-.4-.7-.57-1.44-.57-1.77,0-2.11,1-2.45,3.61a22.63,22.63,0,0,0-.3,3.07,2.57,2.57,0,0,0,.33,1.55,1.83,1.83,0,0,0,1.36.42c1.74,0,2.13-.93,2.48-3.38a27.38,27.38,0,0,0,.3-3.21A2.59,2.59,0,0,0,26.76,11m4.68,7.32c-1,2.53-3,4.2-7.58,4.2a8.61,8.61,0,0,1-4.65-1c-1.54-.95-2-2.56-2-4.53a16.28,16.28,0,0,1,1.29-6.54C19.61,8.35,21.64,7,25.75,7a8.2,8.2,0,0,1,5,1.21c1.3,1,1.66,2.5,1.66,4.36a18.1,18.1,0,0,1-.95,5.75"/><path class="cls-1" d="M43.72,22.07a.65.65,0,0,1-.58.47H35.63a.46.46,0,0,1-.47-.47L33.19,8V7.84a.67.67,0,0,1,.7-.71h4.17c.41,0,.68.06.71.56l.73,11.5h.79L43.61,7.72a.71.71,0,0,1,.82-.59h4.19a.53.53,0,0,1,.59.53,1.37,1.37,0,0,1-.06.32Z"/><path class="cls-1" d="M56.66,4.74c-.08.71-.43.94-1.12.94H52.07c-.59,0-.89-.17-.89-.71V4.74l.45-3.45c.09-.7.41-.94,1.09-.94h3.47c.62,0,.92.21.92.71a.58.58,0,0,1,0,.23ZM54.5,22.12a.53.53,0,0,1-.55.44H49.41a.39.39,0,0,1-.44-.38v-.06l1.8-14.58a.52.52,0,0,1,.53-.44h4.54c.27,0,.44.15.44.38v.06Z"/><path class="cls-1" d="M66.59,11c-.25-.45-.73-.51-1.49-.51a8.79,8.79,0,0,0-1.78.23l-1,8.28a10.86,10.86,0,0,0,1.38.11c1.69,0,2.31-.34,2.79-3.41a22,22,0,0,0,.34-3.32A3.21,3.21,0,0,0,66.59,11m4.48,7.69c-1.07,2.56-3,3.86-7.3,3.86a18.72,18.72,0,0,1-5.4-.68c-1.19-.4-1.47-.85-1.47-1.66a10.27,10.27,0,0,1,.15-1.47l2-17c.06-.46.22-.73.7-.82l4-.59.19,0a.45.45,0,0,1,.51.48s0,.06,0,.08l-.72,6.64A10.74,10.74,0,0,1,66.79,7c1.94,0,3.38.39,4.25,1.38a5.74,5.74,0,0,1,1.13,4,19.69,19.69,0,0,1-1.1,6.28"/><path class="cls-1" d="M81.11,10.32c-2.06,0-2.46,2.09-2.54,3.94,2-.11,4.53,0,4.53-2a1.75,1.75,0,0,0-2-1.92m-2.82,6.45a1.85,1.85,0,0,0,0,.39,1.61,1.61,0,0,0,1.13,1.64,7.37,7.37,0,0,0,2.51.33,15.44,15.44,0,0,0,3.82-.64s0,0,.06,0c.22,0,.42.2.45.53l.19,1.81v.08a.64.64,0,0,1-.39.65,16.43,16.43,0,0,1-5.91,1c-4.37,0-6.93-1.58-6.93-6.06a12.7,12.7,0,0,1,2-7.1C76.55,7.53,79,7,81.42,7,85.38,7,88,8,88,11.9c0,4.76-4.33,4.7-9.74,4.87"/><path class="cls-1" d="M99.05,10.41a.47.47,0,0,1-.52.43H95.12l-.7,5.28c0,.41-.11.93-.11,1.4a1.1,1.1,0,0,0,.34,1,1.87,1.87,0,0,0,1.11.29,11.82,11.82,0,0,0,1.84-.17h.12c.26,0,.29.17.32.35l.14,2.27v.12a.63.63,0,0,1-.52.7,13.37,13.37,0,0,1-3.79.52,6.93,6.93,0,0,1-3.5-.7,3.35,3.35,0,0,1-1.63-3.21,19,19,0,0,1,.2-2.27l1.6-13a.84.84,0,0,1,.73-.85l4.2-.66c.06,0,.12,0,.18,0a.43.43,0,0,1,.49.46v.12L95.59,7H99a.39.39,0,0,1,.44.38v.06Z"/></svg>